HIERARCHY
ROOT hip
{
	OFFSET 0.000000 0.000000 0.000000
	CHANNELS 6 Xposition Yposition Zposition Xrotation Zrotation Yrotation 
	JOINT abdomen
	{
		OFFSET 0.000000 3.422050 0.000000
		CHANNELS 3 Xrotation Zrotation Yrotation 
		JOINT chest
		{
			OFFSET 0.000000 8.486693 -0.684411
			CHANNELS 3 Xrotation Zrotation Yrotation 
			JOINT neck
			{
				OFFSET 0.000000 10.266162 -0.273764
				CHANNELS 3 Xrotation Zrotation Yrotation 
				JOINT head
				{
					OFFSET 0.000000 3.148285 0.000000
					CHANNELS 3 Xrotation Zrotation Yrotation 
					End Site
					{
						OFFSET 0.000000 3.148289 0.000000
					}
				}
			}
			JOINT lCollar
			{
				OFFSET 3.422053 6.707223 -0.821293
				CHANNELS 3 Yrotation Zrotation Xrotation 
				JOINT lShldr
				{
					OFFSET 3.285171 0.000000 0.000000
					CHANNELS 3 Zrotation Yrotation Xrotation 
					JOINT lForeArm
					{
						OFFSET 10.129278 0.000000 0.000000
						CHANNELS 3 Yrotation Zrotation Xrotation 
						JOINT lHand
						{
							OFFSET 8.486692 0.000000 0.000000
							CHANNELS 3 Zrotation Yrotation Xrotation 
							End Site
							{
								OFFSET 4.106464 0.000000 0.000000
							}
						}
					}
				}
			}
			JOINT rCollar
			{
				OFFSET -3.558935 6.707223 -0.821293
				CHANNELS 3 Yrotation Zrotation Xrotation 
				JOINT rShldr
				{
					OFFSET -3.148289 0.000000 0.000000
					CHANNELS 3 Zrotation Yrotation Xrotation 
					JOINT rForeArm
					{
						OFFSET -10.266159 0.000000 0.000000
						CHANNELS 3 Yrotation Zrotation Xrotation 
						JOINT rHand
						{
							OFFSET -8.349810 0.000000 0.000000
							CHANNELS 3 Zrotation Yrotation Xrotation 
							End Site
							{
								OFFSET -4.106464 0.000000 0.000000
							}
						}
					}
				}
			}
		}
	}
	JOINT lThigh
	{
		OFFSET 5.338403 -1.642589 1.368821
		CHANNELS 3 Xrotation Zrotation Yrotation 
		JOINT lShin
		{
			OFFSET -2.053232 -20.121670 0.000000
			CHANNELS 3 Xrotation Zrotation Yrotation 
			JOINT lFoot
			{
				OFFSET 0.000000 -19.300380 -1.231939
				CHANNELS 3 Xrotation Yrotation Zrotation 
				End Site
				{
					OFFSET 0.000000 -2.463878 4.653993
				}
			}
		}
	}
	JOINT rThigh
	{
		OFFSET -5.338403 -1.642589 1.368821
		CHANNELS 3 Xrotation Zrotation Yrotation 
		JOINT rShin
		{
			OFFSET 2.053232 -20.121670 0.000000
			CHANNELS 3 Xrotation Zrotation Yrotation 
			JOINT rFoot
			{
				OFFSET 0.000000 -19.300380 -1.231939
				CHANNELS 3 Xrotation Yrotation Zrotation 
				End Site
				{
					OFFSET 0.000000 -2.463878 4.653993
				}
			}
		}
	}
}
MOTION
Frames: 19
Frame Time: 0.033325
0.000000 43.528500 0.000000 0.000000 0.000000 0.000000 0.000000 0.000000 0.000000 0.000000 0.000000 0.000000 0.000000 0.000000 0.000000 0.000000 0.000000 0.000000 0.000000 0.000000 0.000000 0.000000 0.000000 0.000000 0.000000 0.000000 0.000000 0.000000 0.000000 0.000000 0.000000 0.000000 0.000000 0.000000 0.000000 0.000000 0.000000 0.000000 0.000000 0.000000 0.000000 0.000000 0.000000 0.000000 0.000000 0.000000 0.000000 0.000000 0.000000 0.000000 0.000000 0.000000 0.000000 0.000000 0.000000 0.000000 0.000000 0.000000 0.000000 0.000000 
-0.315388 43.405350 17.749102 -8.998565 0.010294 -179.869186 20.698511 -0.250899 -0.154243 -21.080666 0.363281 -0.542475 -0.501836 0.000000 0.000000 -0.841063 0.000000 0.000000 38.574551 -12.191574 24.074459 152.980438 -71.569862 153.582657 -78.163223 -15.628817 -7.142798 -4.133335 27.676117 -7.691264 -26.100370 12.137415 19.080257 -149.051483 75.174934 155.015228 55.296558 7.992198 -1.820613 7.584620 -12.843020 -1.004755 -34.947830 10.543883 8.882810 40.844139 1.392637 -0.558115 -12.193390 7.065896 -14.527515 -34.765427 -9.672074 -9.384487 41.008419 -1.538349 0.554209 -12.202038 -6.978156 13.750480 
-0.315388 43.405350 17.434864 -7.390192 0.007816 -179.878983 19.929991 -0.250921 -0.154049 -18.495337 0.363223 -0.542378 -0.999079 0.000000 0.000000 -1.669038 0.000000 0.000000 38.145897 -12.282655 23.879889 152.980438 -71.569878 153.582657 -77.388031 -15.412415 -6.924025 -4.151733 27.077913 -7.372074 -25.633642 12.130942 18.777052 -148.358643 75.066338 155.637100 54.073940 7.752584 -1.674033 7.582183 -12.005824 -0.817577 -32.705551 10.629868 9.028814 40.844139 1.392637 -0.558115 -12.693853 6.965666 -14.628109 -32.544449 -9.737093 -9.497931 41.008419 -1.538349 0.554209 -12.690354 -6.903777 13.850886 
-0.315388 43.405350 17.120625 -5.778328 0.005609 -179.888870 19.161087 -0.250940 -0.153855 -15.895174 0.363159 -0.542282 -1.496709 0.000000 0.000000 -2.498831 0.000000 0.000000 37.716694 -12.372315 23.684517 152.980438 -71.569862 153.582657 -76.614105 -15.193067 -6.708423 -4.173767 26.479572 -7.054221 -25.166859 12.122046 18.473846 -147.675323 74.955818 156.249466 52.851059 7.509613 -1.532547 7.582547 -11.168113 -0.630881 -30.453003 10.710497 9.178808 40.844139 1.392637 -0.558115 -13.194502 6.866287 -14.729576 -30.313705 -9.797973 -9.614354 41.008423 -1.538349 0.554209 -13.178832 -6.830234 13.951936 
-0.315388 43.405350 16.806387 -4.163602 0.003678 -179.898819 18.391869 -0.250957 -0.153660 -13.282746 0.363091 -0.542189 -1.994709 0.000000 0.000000 -3.330362 0.000000 0.000000 37.286995 -12.460560 23.488377 152.980438 -71.569855 153.582642 -75.841515 -14.970840 -6.496045 -4.199386 25.881165 -6.737641 -24.700075 12.110738 18.170692 -147.001450 74.843452 156.852371 51.628189 7.263449 -1.396260 7.585683 -10.329980 -0.444602 -28.191866 10.785513 9.332480 40.844135 1.392637 -0.558115 -13.695321 6.767774 -14.831917 -28.074846 -9.854522 -9.733524 41.008419 -1.538349 0.554209 -13.667458 -6.757537 14.053617 
-0.315388 43.405350 16.492149 -2.546648 0.002026 -179.908844 17.622416 -0.250972 -0.153464 -10.660701 0.363019 -0.542099 -2.493059 0.000000 0.000000 -4.163548 0.000000 0.000000 36.856792 -12.547375 23.291481 152.980438 -71.569862 153.582657 -75.070343 -14.745801 -6.286936 -4.228540 25.282736 -6.422264 -24.233313 12.097009 17.867605 -146.336975 74.729286 157.445892 50.405560 7.014250 -1.265265 7.591578 -9.491535 -0.258679 -25.923899 10.854694 9.489515 40.844139 1.392637 -0.558115 -14.196295 6.670140 -14.935119 -25.829552 -9.906570 -9.855187 41.008419 -1.538349 0.554209 -14.156206 -6.685692 14.155917 
-0.315388 43.405350 16.177910 -0.928106 0.000657 -179.918930 16.852779 -0.250983 -0.153269 -8.031745 0.362943 -0.542013 -2.991742 0.000000 0.000000 -4.998307 0.000000 0.000000 36.426102 -12.632750 23.093836 152.980438 -71.569862 153.582657 -74.300636 -14.518009 -6.081143 -4.261185 24.684366 -6.108028 -23.766624 12.080872 17.564648 -145.681824 74.613281 158.030014 49.183441 6.762188 -1.139651 7.600214 -8.652875 -0.073051 -23.650866 10.917830 9.649556 40.844139 1.392637 -0.558115 -14.697396 6.573392 -15.039162 -23.579550 -9.953971 -9.979086 41.008419 -1.538349 0.554209 -14.645064 -6.614710 14.258828 
-0.315388 43.405350 15.863672 0.691379 -0.000428 -179.929062 16.083050 -0.250993 -0.153073 -5.398619 0.362862 -0.541929 -3.490738 0.000000 0.000000 -5.834552 0.000000 0.000000 35.994949 -12.716669 22.895458 152.980438 -71.569862 153.582657 -73.532463 -14.287539 -5.878711 -4.297272 24.086088 -5.794868 -23.300028 12.062319 17.261829 -145.035919 74.495506 158.604843 47.962086 6.507434 -1.019501 7.611577 -7.814106 0.112343 -21.374571 10.974748 9.812248 40.844139 1.392637 -0.558115 -15.198612 6.477549 -15.144044 -21.326567 -9.996589 -10.104939 41.008419 -1.538349 0.554209 -15.134009 -6.544599 14.362334 
-0.315388 43.405350 15.549435 2.311161 -0.001226 -179.939209 15.313277 -0.250999 -0.152877 -2.764102 0.362778 -0.541850 -3.990028 0.000000 0.000000 -6.672201 0.000000 0.000000 35.563351 -12.799131 22.696377 152.980438 -71.569862 153.582657 -72.765884 -14.054446 -5.679679 -4.336761 23.487991 -5.482726 -22.833559 12.041349 16.959187 -144.399261 74.376099 159.170486 46.741730 6.250166 -0.904886 7.625652 -6.975331 0.297563 -19.096817 11.025291 9.977206 40.844139 1.392637 -0.558115 -15.699921 6.382617 -15.249744 -19.072348 -10.034310 -10.232457 41.008419 -1.538349 0.554209 -15.623023 -6.475366 14.466426 
-0.315388 43.405350 15.235196 3.930592 -0.001738 -179.949371 14.543543 -0.251003 -0.152682 -0.130977 0.362690 -0.541774 -4.489595 0.000000 0.000000 -7.511164 0.000000 0.000000 35.131340 -12.880135 22.496605 152.980438 -71.569862 153.582657 -72.000961 -13.818811 -5.484089 -4.379608 22.890108 -5.171537 -22.367258 12.017979 16.656761 -143.771652 74.254959 159.726974 45.522640 5.990563 -0.795876 7.642431 -6.136652 0.482669 -16.819439 11.069341 10.144040 40.844135 1.392637 -0.558115 -16.201300 6.288611 -15.356256 -16.818676 -10.067056 -10.361355 41.008411 -1.538349 0.554209 -16.112085 -6.407018 14.571091 
-0.315388 43.405350 14.920958 5.549028 -0.001961 -179.959534 13.773915 -0.251004 -0.152486 2.497981 0.362599 -0.541703 -4.989419 0.000000 0.000000 -8.351357 0.000000 0.000000 34.698921 -12.959659 22.296162 152.980438 -71.569862 153.582657 -71.237740 -13.580695 -5.291974 -4.425774 22.292521 -4.861249 -21.901161 11.992201 16.354591 -143.153137 74.132210 160.274399 44.305046 5.728806 -0.692527 7.661902 -5.298174 0.667719 -14.544261 11.106812 10.312356 40.844135 1.392637 -0.558115 -16.702732 6.195539 -15.463564 -14.567283 -10.094753 -10.491319 41.008415 -1.538349 0.554209 -16.601183 -6.339568 14.676325 
-0.315388 43.405350 14.606720 7.165821 -0.001898 -179.969696 13.004456 -0.251003 -0.152290 5.120027 0.362505 -0.541636 -5.489484 0.000000 0.000000 -9.192693 0.000000 0.000000 34.266109 -13.037693 22.095043 152.980438 -71.569862 153.582657 -70.476280 -13.340175 -5.103372 -4.475216 21.695271 -4.551799 -21.435307 11.964026 16.052702 -142.543579 74.007919 160.812881 43.089184 5.465079 -0.594891 7.684058 -4.459997 0.852772 -12.273096 11.137640 10.481747 40.844139 1.392637 -0.558115 -17.204199 6.103415 -15.571656 -12.319935 -10.117368 -10.622053 41.008419 -1.538349 0.554209 -17.090284 -6.273017 14.782104 
-0.315388 43.405350 14.292481 8.780334 -0.001549 -179.979828 12.235243 -0.250999 -0.152095 7.732451 0.362408 -0.541573 -5.989766 0.000000 0.000000 -10.035080 0.000000 0.000000 33.832928 -13.114243 21.893291 152.980438 -71.569862 153.582657 -69.716652 -13.097319 -4.918313 -4.527904 21.098436 -4.243138 -20.969713 11.933450 15.751126 -141.942856 73.882042 161.342453 41.875278 5.199568 -0.503011 7.708894 -3.622226 1.037885 -10.007743 11.161805 10.651808 40.844139 1.392637 -0.558115 -17.705677 6.012250 -15.680525 -10.078346 -10.134873 -10.753242 41.008419 -1.538349 0.554209 -17.579376 -6.207375 14.888423 
-0.315388 43.405350 13.978243 10.391932 -0.000915 -179.989944 11.466342 -0.250992 -0.151899 10.332614 0.362309 -0.541516 -6.490251 0.000000 0.000000 -10.878432 0.000000 0.000000 33.399403 -13.189295 21.690920 152.980438 -71.569862 153.582657 -68.958878 -12.852198 -4.736830 -4.583795 20.502056 -3.935205 -20.504433 11.900491 15.449907 -141.350876 73.754601 161.863251 40.663597 4.932462 -0.416922 7.736402 -2.784963 1.223117 -7.749963 11.179300 10.822128 40.844143 1.392637 -0.558115 -18.207151 5.922054 -15.790153 -7.844229 -10.147285 -10.884586 41.008423 -1.538349 0.554209 -18.068447 -6.142651 14.995271 
-0.315388 43.405350 13.664005 12.002546 0.000000 -180.000000 10.697819 -0.250983 -0.151704 12.917942 0.362208 -0.541463 -6.990916 0.000000 0.000000 -11.722654 0.000000 0.000000 32.965538 -13.262836 21.487936 152.980438 -71.569862 153.582657 -68.203011 -12.604890 -4.558949 -4.642857 19.906199 -3.627952 -20.039490 11.865144 15.149070 -140.767563 73.625740 162.375366 39.454330 4.663948 -0.336654 7.766584 -1.948311 1.408525 -5.501496 11.190171 10.992312 40.844139 1.392637 -0.558115 -18.708595 5.832835 -15.900518 -5.619247 -10.154622 -11.015779 41.008419 -1.538349 0.554209 -18.557468 -6.078850 15.102633 
-0.315388 43.405350 13.936345 10.606555 -0.000809 -179.991272 11.363847 -0.250991 -0.151873 10.678236 0.362296 -0.541508 -7.491745 0.000000 0.000000 -12.567660 0.000000 0.000000 33.341572 -13.199189 21.663889 152.980438 -71.569862 153.582657 -68.857971 -12.819347 -4.712902 -4.591488 20.422577 -3.894200 -20.442421 11.895914 15.409771 -140.868057 73.648170 162.287216 40.502216 4.896737 -0.405883 7.740272 -2.673372 1.247826 -7.449592 11.181132 10.844836 40.844143 1.392637 -0.558115 -18.274012 5.910101 -15.804822 -7.546999 -10.148552 -10.902092 41.008423 -1.538349 0.554209 -18.133654 -6.134091 15.009558 
-0.315388 43.405350 14.208685 9.210405 -0.001407 -179.982529 12.030170 -0.250997 -0.152042 8.427135 0.362382 -0.541558 -7.992716 0.000000 0.000000 -13.413360 0.000000 0.000000 33.717358 -13.134402 21.839390 152.980438 -71.569862 153.582657 -69.514389 -13.032171 -4.869567 -4.542496 20.939350 -4.160952 -20.845608 11.924895 15.670766 -140.968811 73.670578 162.198792 41.551937 5.128488 -0.479486 7.715968 -3.398903 1.087266 -9.404854 11.167122 10.697218 40.844139 1.392637 -0.558115 -17.839405 5.988103 -15.709686 -9.481782 -10.138681 -10.788264 41.008415 -1.538349 0.554209 -17.709801 -6.190026 14.916865 
-0.315388 43.405350 14.481025 7.811936 -0.001792 -179.973755 12.696738 -0.251001 -0.152212 6.166301 0.362466 -0.541610 -8.493812 0.000000 0.000000 -14.259661 0.000000 0.000000 34.092884 -13.068495 22.014421 152.980438 -71.569862 153.582657 -70.172188 -13.243306 -5.028919 -4.495904 21.456484 -4.428243 -21.249039 11.952085 15.932033 -141.069809 73.692947 162.110153 42.603378 5.359079 -0.557446 7.693670 -4.124834 0.926806 -11.366160 11.148108 10.549714 40.844139 1.392637 -0.558115 -17.404789 6.066834 -15.615112 -11.422508 -10.124979 -10.674487 41.008415 -1.538349 0.554209 -17.285923 -6.246651 14.824567 
-0.315388 43.405350 14.753365 6.411563 -0.001963 -179.964951 13.363511 -0.251004 -0.152382 3.897438 0.362549 -0.541666 -8.995014 0.000000 0.000000 -15.106473 0.000000 0.000000 34.468136 -13.001462 22.188978 152.980438 -71.569862 153.582657 -70.831398 -13.452709 -5.190946 -4.451738 21.973942 -4.696108 -21.652678 11.977473 16.193546 -141.171082 73.715279 162.021240 43.656361 5.588386 -0.639741 7.673384 -4.851102 0.766409 -13.332357 11.124082 10.402588 40.844139 1.392637 -0.558115 -16.970177 6.146288 -15.521118 -13.368083 -10.107447 -10.560966 41.008415 -1.538349 0.554209 -16.862032 -6.303960 14.732671 
